<svg xmlns="http://www.w3.org/2000/svg" width="222" height="44.055" viewBox="0 0 222 44.055"><defs><style>.a{fill:#fff;}.b{fill:#00dcd5;}.c{fill:#6a828f;}.d{fill:#7398aa;}</style></defs><path class="a" d="M24.732,39.406c3.377.315,6.9.481,10.529.481A102.549,102.549,0,0,0,58.75,37.315,5.533,5.533,0,0,0,63,31.934V9.979A5.533,5.533,0,0,0,58.75,4.6,102.549,102.549,0,0,0,35.261,2.026,102.548,102.548,0,0,0,11.773,4.6,5.533,5.533,0,0,0,7.524,9.979V31.934a5.533,5.533,0,0,0,4.249,5.381q2.143.512,4.439.931v6.088Z" transform="translate(-3.204 -1.473)"/><path class="b" d="M50.561,17.375H25.916a8.541,8.541,0,0,0-8.541,8.541h0a8.541,8.541,0,0,0,8.541,8.54H50.561A8.541,8.541,0,0,0,59.1,25.915h0A8.541,8.541,0,0,0,50.561,17.375ZM25.916,31.186a5.271,5.271,0,1,1,5.271-5.27A5.271,5.271,0,0,1,25.916,31.186Zm24.645,0a5.271,5.271,0,1,1,5.271-5.271A5.271,5.271,0,0,1,50.561,31.186Z" transform="translate(-6.181 -6.111)"/><path class="b" d="M63.137,12.5H62V10.06a6.387,6.387,0,0,0-4.919-6.231,103.831,103.831,0,0,0-23.692-2.6A103.825,103.825,0,0,0,9.7,3.829,6.387,6.387,0,0,0,4.779,10.06V12.5H3.644a2.311,2.311,0,0,0-2.311,2.311V27.267a2.311,2.311,0,0,0,2.312,2.311H4.779v2.437A6.387,6.387,0,0,0,9.7,38.245c1.218.291,2.483.562,3.768.807v5.362a.874.874,0,0,0,1.311.756l8.28-4.788c3.368.306,6.843.461,10.332.461a103.791,103.791,0,0,0,23.692-2.6A6.387,6.387,0,0,0,62,32.015V29.578h1.135a2.311,2.311,0,0,0,2.312-2.311V14.809A2.311,2.311,0,0,0,63.137,12.5ZM60.255,32.015a4.645,4.645,0,0,1-3.578,4.531A102.033,102.033,0,0,1,33.39,39.095c-3.532,0-7.047-.16-10.448-.478a.88.88,0,0,0-.518.114L15.214,42.9V38.326a.873.873,0,0,0-.717-.86c-1.5-.274-2.98-.583-4.393-.921a4.645,4.645,0,0,1-3.578-4.531V10.06A4.645,4.645,0,0,1,10.1,5.529,102.061,102.061,0,0,1,33.39,2.98,102.072,102.072,0,0,1,56.676,5.529a4.645,4.645,0,0,1,3.578,4.531Z" transform="translate(-1.333 -1.233)"/><path class="b" d="M51.422,46.371H36.1a.451.451,0,0,0-.241.832,14.8,14.8,0,0,0,15.805,0,.451.451,0,0,0-.241-.832Z" transform="translate(-11.703 -14.874)"/><g transform="translate(74.199 7.777)"><path class="c" d="M123.6,21.532a1.838,1.838,0,0,1,.525,1.359v13.74q0,3.767-2.331,5.573a9.371,9.371,0,0,1-5.913,1.807,14.512,14.512,0,0,1-2.548-.309,11.216,11.216,0,0,1-2.3-.618q-1.514-.648-1.514-1.791a1.574,1.574,0,0,1,.093-.494,1.909,1.909,0,0,1,.633-1.034,1.529,1.529,0,0,1,.973-.355,1.855,1.855,0,0,1,.587.092q.124.03,1.528.571a7.179,7.179,0,0,0,2.548.541,5.359,5.359,0,0,0,3.412-.911,3.125,3.125,0,0,0,1.127-2.578V35.643a6.149,6.149,0,0,1-2.053,1.729,5.928,5.928,0,0,1-2.949.772,7.347,7.347,0,0,1-3.937-1.1,7.673,7.673,0,0,1-2.794-3.042,9.366,9.366,0,0,1-1.019-4.416,9.587,9.587,0,0,1,1-4.431,7.621,7.621,0,0,1,2.749-3.056,7.136,7.136,0,0,1,3.875-1.1,6.731,6.731,0,0,1,2.934.648,6.906,6.906,0,0,1,2.192,1.575v-.34a1.852,1.852,0,0,1,.525-1.343,1.771,1.771,0,0,1,1.327-.54A1.8,1.8,0,0,1,123.6,21.532ZM119.261,33.28a5.327,5.327,0,0,0,1.313-3.69,5.381,5.381,0,0,0-1.313-3.7A4.308,4.308,0,0,0,115.88,24.4a4.26,4.26,0,0,0-3.365,1.483,5.417,5.417,0,0,0-1.3,3.7,5.362,5.362,0,0,0,1.3,3.69,4.28,4.28,0,0,0,3.365,1.467A4.328,4.328,0,0,0,119.261,33.28Z" transform="translate(-107.666 -14.986)"/><path class="c" d="M149.023,30.394a1.965,1.965,0,0,1-1.3.463h-10.19a4.653,4.653,0,0,0,1.7,2.857,4.747,4.747,0,0,0,2.995,1.034,6.647,6.647,0,0,0,1.976-.232,5.133,5.133,0,0,0,1.127-.494q.417-.262.571-.355a2.359,2.359,0,0,1,1.05-.278,1.513,1.513,0,0,1,1.111.463,1.479,1.479,0,0,1,.463,1.08,1.927,1.927,0,0,1-.865,1.514,7.353,7.353,0,0,1-2.316,1.2,9.575,9.575,0,0,1-7.457-.586,7.545,7.545,0,0,1-2.98-2.98,8.691,8.691,0,0,1-1.05-4.277,9.466,9.466,0,0,1,1.112-4.662,7.883,7.883,0,0,1,2.933-3.072,7.58,7.58,0,0,1,3.891-1.066,7.213,7.213,0,0,1,3.844,1.112,8.318,8.318,0,0,1,2.887,2.995,8.057,8.057,0,0,1,1.081,4.076A1.588,1.588,0,0,1,149.023,30.394Zm-11.455-2.624h8.09v-.216a3.193,3.193,0,0,0-1.266-2.223A4.009,4.009,0,0,0,141.8,24.4Q138.215,24.4,137.568,27.769Z" transform="translate(-115.583 -14.986)"/><path class="c" d="M173.109,22.875a9.494,9.494,0,0,1,1.2,5.172v7.9a1.85,1.85,0,0,1-.525,1.343,1.9,1.9,0,0,1-2.656,0,1.847,1.847,0,0,1-.525-1.343v-7.9a4.448,4.448,0,0,0-.71-2.671,2.824,2.824,0,0,0-2.439-.973,3.764,3.764,0,0,0-2.809,1.035,3.564,3.564,0,0,0-1.019,2.609v7.9a1.853,1.853,0,0,1-.525,1.343,1.9,1.9,0,0,1-2.656,0,1.847,1.847,0,0,1-.525-1.343V23.2a1.85,1.85,0,0,1,.525-1.343,1.9,1.9,0,0,1,2.656,0,1.856,1.856,0,0,1,.525,1.343v.525a7.452,7.452,0,0,1,2.176-1.914,5.643,5.643,0,0,1,2.949-.8Q171.905,21.007,173.109,22.875Z" transform="translate(-123.459 -14.986)"/><path class="c" d="M199.2,30.394a1.967,1.967,0,0,1-1.3.463H187.715a4.653,4.653,0,0,0,1.7,2.857,4.747,4.747,0,0,0,2.995,1.034,6.646,6.646,0,0,0,1.976-.232,5.133,5.133,0,0,0,1.127-.494q.417-.262.571-.355a2.359,2.359,0,0,1,1.049-.278,1.514,1.514,0,0,1,1.112.463,1.479,1.479,0,0,1,.463,1.08,1.929,1.929,0,0,1-.865,1.514,7.361,7.361,0,0,1-2.316,1.2,9.575,9.575,0,0,1-7.457-.586,7.541,7.541,0,0,1-2.98-2.98,8.691,8.691,0,0,1-1.05-4.277,9.466,9.466,0,0,1,1.112-4.662,7.884,7.884,0,0,1,2.934-3.072,7.579,7.579,0,0,1,3.89-1.066,7.215,7.215,0,0,1,3.845,1.112,8.318,8.318,0,0,1,2.887,2.995,8.057,8.057,0,0,1,1.081,4.076A1.588,1.588,0,0,1,199.2,30.394Zm-11.456-2.624h8.09v-.216a3.2,3.2,0,0,0-1.266-2.223,4.006,4.006,0,0,0-2.594-.927Q188.394,24.4,187.745,27.769Z" transform="translate(-130.747 -14.986)"/><path class="c" d="M218.187,33.359a1.63,1.63,0,0,1,.355,1.1,1.649,1.649,0,0,1-.911,1.4,3.778,3.778,0,0,1-2.053.571,5.981,5.981,0,0,1-3.227-.819q-1.314-.817-1.313-3.474V23.617h-1.421a1.687,1.687,0,0,1-1.729-1.729,1.588,1.588,0,0,1,.494-1.188,1.705,1.705,0,0,1,1.235-.479h1.421V18.244a1.845,1.845,0,0,1,1.883-1.883,1.74,1.74,0,0,1,1.3.54,1.854,1.854,0,0,1,.525,1.343V20.22h2.192a1.689,1.689,0,0,1,1.73,1.729,1.588,1.588,0,0,1-.494,1.188,1.7,1.7,0,0,1-1.236.479h-2.192v8.368a1.183,1.183,0,0,0,.339.942,1.372,1.372,0,0,0,.927.293,2.657,2.657,0,0,0,.68-.124,1.844,1.844,0,0,1,.71-.154A1.027,1.027,0,0,1,218.187,33.359Z" transform="translate(-137.954 -13.582)"/><path class="c" d="M230.143,37.428a1.9,1.9,0,0,1-2.656,0,1.847,1.847,0,0,1-.525-1.343V23.333a1.85,1.85,0,0,1,.525-1.343,1.9,1.9,0,0,1,2.656,0,1.856,1.856,0,0,1,.525,1.343V36.085A1.853,1.853,0,0,1,230.143,37.428Z" transform="translate(-143.718 -15.119)"/><path class="c" d="M251.246,33.375a1.655,1.655,0,0,1-.6,1.3,1.926,1.926,0,0,1-1.282.525A1.76,1.76,0,0,1,248,34.579l-5.558-5.867-1.513,1.39v3.242a1.85,1.85,0,0,1-.525,1.343,1.9,1.9,0,0,1-2.655,0,1.848,1.848,0,0,1-.525-1.343V14.261a1.85,1.85,0,0,1,.525-1.343,1.9,1.9,0,0,1,2.655,0,1.852,1.852,0,0,1,.525,1.343V25.686l6.608-6.392a1.865,1.865,0,0,1,1.359-.587,1.647,1.647,0,0,1,1.22.571,1.7,1.7,0,0,1,.54,1.158,1.855,1.855,0,0,1-.741,1.39l-4.663,4.291,5.4,5.867A1.969,1.969,0,0,1,251.246,33.375Z" transform="translate(-146.82 -12.378)"/><path class="c" d="M259.042,34.346a1.756,1.756,0,0,1,1.7-1.636,1.742,1.742,0,0,1,1.235.586,6.51,6.51,0,0,0,1.929,1.421,5.761,5.761,0,0,0,2.424.463q2.408-.093,2.408-1.822A1.477,1.477,0,0,0,267.919,32a11.552,11.552,0,0,0-2.548-.927,21.843,21.843,0,0,1-2.917-.988,5.149,5.149,0,0,1-1.945-1.5,4.145,4.145,0,0,1-.818-2.7,4.087,4.087,0,0,1,.849-2.578,5.586,5.586,0,0,1,2.223-1.7,7.181,7.181,0,0,1,2.918-.6,8.974,8.974,0,0,1,3.149.587,5.478,5.478,0,0,1,2.47,1.729,1.719,1.719,0,0,1,.4,1.112,1.434,1.434,0,0,1-.587,1.173,1.555,1.555,0,0,1-.988.34,1.5,1.5,0,0,1-1.112-.433,3.924,3.924,0,0,0-1.436-1.08,4.742,4.742,0,0,0-1.992-.4q-2.347,0-2.347,1.7a1.451,1.451,0,0,0,.433,1.1,2.944,2.944,0,0,0,1.1.648q.663.232,1.868.571a20.363,20.363,0,0,1,2.779.957,4.768,4.768,0,0,1,1.883,1.513,4.337,4.337,0,0,1,.772,2.687,4.117,4.117,0,0,1-.9,2.64,5.666,5.666,0,0,1-2.3,1.714,7.435,7.435,0,0,1-2.887.586,10.453,10.453,0,0,1-3.8-.679,6.309,6.309,0,0,1-2.872-2.192A1.5,1.5,0,0,1,259.042,34.346Z" transform="translate(-153.413 -14.986)"/><circle class="b" cx="1.953" cy="1.953" r="1.953" transform="translate(83.143 0)"/></g><g transform="translate(200.529 11.976)"><path class="d" d="M304.777,35.906a1.2,1.2,0,0,1-1.193,1.22,1.11,1.11,0,0,1-.676-.225,1.584,1.584,0,0,1-.491-.623l-1.645-3.9H292.58L290.963,36.3a1.235,1.235,0,0,1-1.963.531,1.076,1.076,0,0,1-.292-.8,3.256,3.256,0,0,1,.054-.424l6.762-16.387a1.473,1.473,0,0,1,.517-.65,1.064,1.064,0,0,1,.756-.172,1.265,1.265,0,0,1,.716.212,1.145,1.145,0,0,1,.451.61L304.7,35.4A1.591,1.591,0,0,1,304.777,35.906Zm-11.19-5.94h6.178l-3.1-7.424Z" transform="translate(-288.708 -18.395)"/><path class="d" d="M317.09,38.678a1.216,1.216,0,0,1-.915.371,1.181,1.181,0,0,1-.888-.371,1.248,1.248,0,0,1-.359-.9V26.295a1.25,1.25,0,0,1,.359-.9,1.181,1.181,0,0,1,.888-.371,1.216,1.216,0,0,1,.915.371,1.252,1.252,0,0,1,.358.9V37.776A1.251,1.251,0,0,1,317.09,38.678Z" transform="translate(-296.632 -20.398)"/></g><circle class="b" cx="1.953" cy="1.953" r="1.953" transform="translate(218.094 11.467)"/></svg>