<svg xmlns="http://www.w3.org/2000/svg" xmlns:xlink="http://www.w3.org/1999/xlink" width="1366" height="444.855" viewBox="0 0 1366 444.855"><defs><style>.a,.j{fill:none;}.a{stroke:#707070;}.b{fill:#4e5d7a;}.c{fill:#3f4a63;}.d{fill:#f1f2f2;}.e{fill:#00dcd5;}.f{fill:#fff;}.g{fill:#e2e4e6;}.h{fill:#34bfc1;}.i{fill:#d3e2e0;mix-blend-mode:multiply;isolation:isolate;}.j{stroke:#34bfc1;}.k{clip-path:url(#a);}.l{fill:#879492;}.m{clip-path:url(#b);}</style><clipPath id="a"><path class="a" d="M848.052,1622.505l-12.2,19.742s.276,12.845,0,14.3,10.8,25.436,10.8,25.436,18.556,1.833,20.94-3.505,13-31.078,10.488-34.581S848.052,1622.505,848.052,1622.505Z" transform="translate(0 -1059)"/></clipPath><clipPath id="b"><path class="a" d="M509,1616l12.707,20.637v10.723s-3.777,17.957-5.527,19.031-15.248,11.957-19.107,7.736-17.217-11.473-16.713-26.768,2.361-29.748,5.674-31.359S509,1616,509,1616Z" transform="translate(0 -1059)"/></clipPath></defs><g transform="translate(0 -348.174)"><g transform="translate(-89.878 265.605)"><g transform="translate(598.878 82.569)"><g transform="translate(0)"><g transform="translate(96.247 277.897)"><path class="b" d="M731.544,356.929l-26.361-4.648,5.757-35.018,26.361,4.648Z" transform="translate(-685.584 -317.263)"/><rect class="c" width="26.767" height="35.522" transform="translate(13.621 108.64)"/><path class="d" d="M743.093,406.987A21.859,21.859,0,0,1,721.3,428.781h-8.653a21.86,21.86,0,0,1-21.8-21.794l6.539-43.588c1.406-12.054,9.808-21.8,21.794-21.8h-.064a21.86,21.86,0,0,1,21.8,21.8Z" transform="translate(-688.223 -312.782)"/><path class="b" d="M719.589,418.68h-8.653a21.573,21.573,0,0,1-10.8-2.906v27.517H726.9V417.384A21.573,21.573,0,0,1,719.589,418.68Z" transform="translate(-686.513 -299.129)"/><path class="e" d="M712.229,462.424h7.036c12.471,0,23.6.575,23.6-10.657s-7.575-16.12-20.045-16.12H707.492c-12.471,0-18.861,5.151-18.861,16.12S699.758,462.424,712.229,462.424Z" transform="translate(-688.631 -295.47)"/><g transform="translate(96.455)"><path class="b" d="M778.511,356.929l26.361-4.648-5.757-35.018-26.361,4.648Z" transform="translate(-769.601 -317.263)"/><rect class="c" width="26.767" height="35.522" transform="translate(14.483 108.64)"/><path class="d" d="M770.091,406.987a21.859,21.859,0,0,0,21.794,21.794h8.653a21.859,21.859,0,0,0,21.8-21.794L815.8,363.4c-1.405-12.054-9.808-21.8-21.794-21.8h.064a21.86,21.86,0,0,0-21.8,21.8Z" transform="translate(-770.091 -312.782)"/><path class="b" d="M798.287,418.68h-8.653a21.572,21.572,0,0,1-7.312-1.3v25.906h26.767V415.774A21.585,21.585,0,0,1,798.287,418.68Z" transform="translate(-767.84 -299.129)"/></g></g><g transform="translate(0 127.824)"><g transform="matrix(0.996, -0.087, 0.087, 0.996, 205.398, 8.955)"><g transform="translate(0 27.742) rotate(-22)"><path class="c" d="M74.056,72.97H55.9C55.9,41.6,26.387,18.156,0,18.156V0C18.133,0,36.7,7.769,50.932,21.316,65.843,35.511,74.056,53.854,74.056,72.97Z"/></g><g transform="translate(12.809 25.122) rotate(-22)"><path class="b" d="M41.295,57.781a51.921,51.921,0,0,0-2.909-7.935L54.87,42.237A69.876,69.876,0,0,1,58.8,52.96ZM34.212,42.388a59.055,59.055,0,0,0-5.28-6.812l13.51-12.129a77.608,77.608,0,0,1,6.9,8.9ZM22.7,29.548a62.3,62.3,0,0,0-7.015-5.108L25.326,9.05a80.817,80.817,0,0,1,9.058,6.6ZM8.062,20.389A56.372,56.372,0,0,0,0,17.533L4.719,0A74.457,74.457,0,0,1,15.393,3.778Z"/><g transform="translate(42.821 64.29)"><path class="b" d="M18.377,6.311H.22C.22,4.791.148,3.254,0,1.739L18.074,0C18.275,2.089,18.377,4.212,18.377,6.311Z"/></g></g><g transform="translate(60.886 81.353) rotate(-22)"><path class="f" d="M.032,21.015c-.019.336-.025.676-.03,1.018,0,.034,0,.066,0,.1H0v.037a20.745,20.745,0,0,0,.131,2.313V24.5c.044.375.1.751.16,1.122,0,.028.012.058.015.086.058.347.128.691.2,1.033.009.038.019.075.028.111.076.333.161.664.252.991.013.04.025.079.037.118.092.326.194.645.3.964l.041.116q.167.48.356.951c.013.032.027.064.041.1.129.321.268.637.416.951A.2.2,0,0,0,2,31.071H2A23.583,23.583,0,0,0,22.6,44.285l-.009-12.925a11.03,11.03,0,0,1-7.929-4.186c-.081-.105-.154-.215-.231-.324s-.155-.225-.226-.34-.133-.214-.2-.323c-.077-.136-.148-.273-.218-.412-.046-.094-.1-.186-.141-.281-.1-.227-.2-.458-.282-.694-.031-.082-.051-.166-.077-.247-.056-.174-.109-.346-.15-.522-.02-.09-.041-.182-.062-.274-.04-.185-.07-.371-.1-.558-.011-.076-.02-.153-.032-.23a7.887,7.887,0,0,1-.046-.805c0-5.01,4.829-9.244,10.555-9.248l4.921,0,4.92,0c5.726,0,10.56,4.238,10.555,9.248a7.887,7.887,0,0,1-.046.805c-.009.077-.021.155-.031.231-.025.186-.058.372-.1.555-.018.092-.037.185-.06.275-.044.176-.095.349-.149.522-.026.082-.049.166-.079.247-.083.236-.175.467-.28.694-.044.095-.095.187-.141.279-.072.14-.141.277-.22.412-.063.109-.129.218-.2.326s-.146.227-.224.339-.153.219-.232.324a11.026,11.026,0,0,1-7.93,4.186l-.007,12.925a23.585,23.585,0,0,0,20.6-13.213h0c0-.012.011-.024.015-.037.146-.313.285-.629.417-.95.014-.032.027-.064.039-.1.128-.313.247-.63.359-.95.014-.04.025-.078.039-.116.109-.319.211-.638.306-.964l.034-.118c.092-.327.176-.658.255-.991.007-.037.019-.073.025-.111.079-.341.147-.686.206-1.033,0-.028.012-.058.017-.086.063-.372.116-.747.157-1.122l0-.012a21.332,21.332,0,0,0,.131-2.312c0-.013,0-.025,0-.037h0c0-.034,0-.066,0-.1,0-.342-.009-.682-.027-1.018-.012-.24-.038-.476-.058-.714-.012-.131-.019-.263-.032-.393C55.446,8.766,45.393-.007,33.283,0l-4.9,0-4.9,0C11.371-.007,1.32,8.766.12,19.908c-.013.13-.02.262-.032.393C.066,20.539.044,20.775.032,21.015Z" transform="translate(0 28.446)"/><path class="g" d="M28.987,17.836,29,5.012a5.013,5.013,0,0,0-5-5L8.914,0A5.02,5.02,0,0,0,3.909,5l0,12.825a16.44,16.44,0,1,0,25.084.015Z" transform="translate(11.958)"/><path class="c" d="M26.088,13.051A13.044,13.044,0,1,0,13.034,26.085,13.044,13.044,0,0,0,26.088,13.051Z" transform="translate(15.353 15.407)"/><path class="e" d="M3.924,12.022a1.236,1.236,0,0,1-.971-.562L.134,6.571a1.247,1.247,0,0,1,0-1.125L2.958.561A1.236,1.236,0,0,1,3.931,0L9.577,0a1.231,1.231,0,0,1,.973.562l2.817,4.888a1.243,1.243,0,0,1,0,1.126l-2.824,4.886a1.248,1.248,0,0,1-.973.56Z" transform="translate(21.646 22.438)"/></g></g><g transform="translate(57.085 -9.064) rotate(31)"><g transform="translate(19.077 0)"><path class="c" d="M18.158,72.97H0c0-19.116,8.214-37.46,23.127-51.654C37.361,7.769,55.925,0,74.058,0V18.156C47.671,18.156,18.158,41.6,18.158,72.97Z"/></g><g transform="translate(19.077 2.369)"><g transform="translate(2.401 0)"><path class="b" d="M17.5,57.781,0,52.96A69.876,69.876,0,0,1,3.929,42.237l16.485,7.609A51.935,51.935,0,0,0,17.5,57.781Zm7.084-15.393L9.46,32.349a77.408,77.408,0,0,1,6.895-8.9L29.867,35.576A59.423,59.423,0,0,0,24.587,42.388ZM36.1,29.548l-11.681-13.9a80.861,80.861,0,0,1,9.058-6.6l9.637,15.39A62.454,62.454,0,0,0,36.1,29.548Zm14.64-9.159L43.406,3.778A74.426,74.426,0,0,1,54.082,0L58.8,17.533A56.34,56.34,0,0,0,50.735,20.389Z"/></g><g transform="translate(0 64.29)"><path class="b" d="M18.158,6.311H0C0,4.212.1,2.089.3,0L18.378,1.739C18.234,3.254,18.158,4.791,18.158,6.311Z"/></g></g><g transform="translate(0 72.516)"><path class="f" d="M56.734,21.015c.019.336.027.676.03,1.018,0,.034,0,.066,0,.1h0v.037a20.745,20.745,0,0,1-.131,2.313V24.5c-.043.375-.1.751-.16,1.122,0,.028-.011.058-.015.086q-.089.52-.206,1.033c-.007.038-.016.075-.026.111-.076.333-.161.664-.253.991l-.036.118c-.094.326-.194.645-.3.964l-.041.116q-.167.48-.358.951c-.012.032-.026.064-.039.1-.13.321-.269.637-.417.951a.191.191,0,0,1-.017.035h0a23.583,23.583,0,0,1-20.6,13.213l.006-12.925A11.031,11.031,0,0,0,42.1,27.173c.081-.105.155-.215.232-.324s.152-.225.224-.34.134-.214.2-.323c.076-.136.148-.273.218-.412.046-.094.1-.186.141-.281.1-.227.2-.458.282-.694.03-.082.051-.166.077-.247.057-.174.108-.346.15-.522.021-.09.041-.182.063-.274.039-.185.07-.371.095-.558l.032-.23c.025-.266.045-.534.045-.805.006-5.01-4.83-9.244-10.554-9.248l-4.921,0-4.921,0c-5.725,0-10.56,4.238-10.554,9.248a7.9,7.9,0,0,0,.046.805c.007.077.019.155.032.231.024.186.057.372.094.555.02.092.039.185.063.275.044.176.095.349.149.522.026.082.05.166.077.247q.126.353.282.694c.044.095.094.187.141.279.072.14.142.277.22.412.062.109.129.218.2.326s.147.227.224.339.153.219.232.324a11.028,11.028,0,0,0,7.93,4.186L22.6,44.285A23.585,23.585,0,0,1,2,31.071H2l-.015-.037q-.217-.469-.414-.95c-.015-.032-.028-.064-.043-.1-.124-.313-.245-.63-.356-.95-.013-.04-.027-.078-.039-.116-.111-.319-.211-.638-.305-.964C.816,27.919.8,27.88.793,27.84c-.094-.327-.175-.658-.255-.991-.008-.037-.019-.073-.025-.111C.435,26.4.368,26.052.308,25.705.3,25.677.3,25.647.291,25.619.229,25.247.175,24.872.134,24.5v-.012A20.744,20.744,0,0,1,0,22.172v-.037H0c0-.034,0-.066,0-.1q0-.513.027-1.018c.013-.24.038-.476.058-.714.012-.131.017-.263.033-.393C1.32,8.766,11.373-.007,23.483,0l4.9,0,4.9,0c12.11-.007,22.163,8.766,23.363,19.908.014.13.018.262.031.393C56.7,20.539,56.722,20.775,56.734,21.015Z" transform="translate(0 28.446)"/><path class="g" d="M3.892,17.836,3.881,5.012a5.014,5.014,0,0,1,5-5L23.965,0a5.017,5.017,0,0,1,5,5l.007,12.825a16.44,16.44,0,1,1-25.084.015Z" transform="translate(11.928)"/><path class="c" d="M0,13.051A13.042,13.042,0,1,1,13.05,26.085,13.042,13.042,0,0,1,0,13.051Z" transform="translate(15.327 15.407)"/><path class="e" d="M9.579,12.022a1.239,1.239,0,0,0,.971-.562l2.818-4.889a1.254,1.254,0,0,0,0-1.125L10.544.561A1.235,1.235,0,0,0,9.571,0L3.925,0a1.236,1.236,0,0,0-.974.562L.135,5.454a1.242,1.242,0,0,0,0,1.126l2.824,4.886a1.242,1.242,0,0,0,.973.56Z" transform="translate(21.618 22.438)"/></g></g></g><rect class="b" width="42.583" height="28.573" transform="translate(150.621 106.917)"/><path class="e" d="M844.755,159.875c0,28-11.075,39.069-39.079,39.069H724.2c-28,0-39.062-11.069-39.062-39.069V121.633c0-28,11.057-39.064,39.062-39.064h81.472c28,0,39.079,11.064,39.079,39.064Z" transform="translate(-593.027 -82.569)"/><path class="h" d="M788.225,82.569h-8.289c28,0,39.079,11.064,39.079,39.064v38.242c0,28-11.075,39.069-39.079,39.069h8.289c28,0,39.08-11.069,39.08-39.069V121.633C827.3,93.633,816.23,82.569,788.225,82.569Z" transform="translate(-575.577 -82.569)"/><path class="f" d="M805.665,192.354H724.194c-28,0-39.063,11.063-39.063,39.063v75.988c0,28,11.075,39.063,39.082,39.063h81.469c28,0,39.063-11.064,39.063-39.063V231.417C844.745,203.417,833.671,192.354,805.665,192.354Z" transform="translate(-593.029 -62.36)"/><path class="g" d="M788.214,192.354h-8.289c28.006,0,39.081,11.063,39.081,39.063v75.988c0,28-11.058,39.063-39.063,39.063h8.289c28,0,39.063-11.064,39.063-39.063V231.417C827.3,203.417,816.22,192.354,788.214,192.354Z" transform="translate(-575.579 -62.36)"/><g transform="translate(110.26 148.291)"><path class="g" d="M724.941,301.647c-18.065,0-24.475-6.4-24.475-24.462v-44.92c0-18.057,6.4-24.458,24.457-24.458h74.367c18.066,0,24.474,6.4,24.474,24.458v44.92c0,18.06-6.4,24.462-24.457,24.462Z" transform="translate(-700.466 -207.806)"/><path class="g" d="M724.941,301.647c-18.065,0-24.475-6.4-24.475-24.462v-44.92c0-18.057,6.4-24.458,24.457-24.458h74.367c18.066,0,24.474,6.4,24.474,24.458v44.92c0,18.06-6.4,24.462-24.457,24.462Z" transform="translate(-700.466 -207.806)"/><path class="c" d="M725.419,296.4c-15.562,0-21.119-5.551-21.119-21.106V232.743c0-15.555,5.549-21.105,21.1-21.105h72c15.561,0,21.118,5.55,21.118,21.105V275.3c0,15.555-5.55,21.106-21.1,21.106Z" transform="translate(-699.76 -207.101)"/><path class="i" d="M797.4,211.638h-72c-15.553,0-21.1,5.55-21.1,21.105v4.736c0-15.555,5.549-21.105,21.1-21.105h72c15.561,0,21.118,5.55,21.118,21.105v-4.736C818.519,217.188,812.962,211.638,797.4,211.638Z" transform="translate(-699.76 -207.101)"/></g><path class="f" d="M718.156,184.679c-19.418,0-25.869-8.4-25.869-33.684V126.669c0-25.277,6.451-33.672,25.869-33.672h83.833c19.279,0,25.632,8.091,25.864,33.109,0,.187,0,24.889,0,24.889,0,25.28-6.444,33.684-25.866,33.684Z" transform="translate(-591.711 -80.649)"/><path class="e" d="M729.531,304.977a5.92,5.92,0,1,1,5.918,5.923A5.916,5.916,0,0,1,729.531,304.977Z" transform="translate(-584.855 -42.717)"/><path class="e" d="M747.531,304.977a5.92,5.92,0,1,1,5.917,5.923A5.916,5.916,0,0,1,747.531,304.977Z" transform="translate(-581.542 -42.717)"/><path class="e" d="M765.531,304.977a5.92,5.92,0,1,1,5.917,5.923A5.915,5.915,0,0,1,765.531,304.977Z" transform="translate(-578.229 -42.717)"/><g transform="translate(145.833 169.518)"><path class="e" d="M752.937,240.509a3.139,3.139,0,1,0,3.138,3.14A3.143,3.143,0,0,0,752.937,240.509Z" transform="translate(-726.958 -223.013)"/><path class="e" d="M760.7,240.509a3.139,3.139,0,1,0,3.138,3.14A3.143,3.143,0,0,0,760.7,240.509Z" transform="translate(-725.529 -223.013)"/><path class="e" d="M745.171,240.509a3.139,3.139,0,1,0,3.137,3.14A3.142,3.142,0,0,0,745.171,240.509Z" transform="translate(-728.388 -223.013)"/><path class="e" d="M779.123,235.948c-4.522-6.1-12.928-10.215-22.538-10.215a30.783,30.783,0,0,0-15.656,4.087l-.088.053a21.33,21.33,0,0,0-9.237,10.692,2.389,2.389,0,0,0-.3.617,16.525,16.525,0,0,0-.793,5.06,17.262,17.262,0,0,0,3.282,9.994,2.4,2.4,0,0,0,.24.289l3.784,3.87.258,11.043a2.384,2.384,0,0,0,1.351,2.1,2.394,2.394,0,0,0,2.491-.243l9.342-7.014a48.531,48.531,0,0,0,5.326.468,32.894,32.894,0,0,0,5.721-.5,23.19,23.19,0,0,0,5.787-1.606c8.619-3.35,14.569-10.338,14.569-18.4a16.441,16.441,0,0,0-.988-5.576A29.911,29.911,0,0,0,779.123,235.948Zm-22.538,26a54.112,54.112,0,0,1-5.629-.554,2.115,2.115,0,0,0-.343-.026,2.394,2.394,0,0,0-1.443.48l-6.4,4.81-.169-7.322a2.393,2.393,0,0,0-.684-1.619l-4.31-4.41a12.452,12.452,0,0,1-2.292-7.064,11.68,11.68,0,0,1,.5-3.352,16.87,16.87,0,0,1,7.229-8.769,2.327,2.327,0,0,0,.317-.156,26.011,26.011,0,0,1,13.232-3.43c11.729,0,21.274,7.045,21.274,15.708S768.314,261.948,756.585,261.948Z" transform="translate(-730.509 -225.733)"/></g><path class="e" d="M794.229,462.424h7.036c12.471,0,23.6.575,23.6-10.657s-7.575-16.12-20.045-16.12H789.492c-12.471,0-18.861,5.151-18.861,16.12S781.758,462.424,794.229,462.424Z" transform="translate(-577.29 -17.574)"/><path class="h" d="M719.264,456.7h-7.036c-11.9,0-22.554.258-23.5-9.249-.059.69-.094,1.4-.094,2.144,0,10.968,11.127,10.657,23.6,10.657h7.036c12.471,0,23.6.575,23.6-10.657q0-1.034-.087-2C741.763,457.21,731.124,456.7,719.264,456.7Z" transform="translate(-592.384 -15.401)"/><path class="h" d="M801.264,456.7h-7.036c-11.9,0-22.554.258-23.5-9.249-.059.69-.094,1.4-.094,2.144,0,10.968,11.127,10.657,23.6,10.657h7.036c12.471,0,23.6.575,23.6-10.657q0-1.034-.086-2C823.763,457.21,813.124,456.7,801.264,456.7Z" transform="translate(-577.29 -15.401)"/></g></g><g transform="translate(681.718 114.113)"><g transform="translate(33.209)"><path class="e" d="M16.286,0H88.331a16.284,16.284,0,0,1,16.284,16.284v9.254A17.287,17.287,0,0,1,87.328,42.825H16.284A16.284,16.284,0,0,1,0,26.541V16.286A16.286,16.286,0,0,1,16.286,0Z"/><circle class="f" cx="13.215" cy="13.215" r="13.215" transform="translate(4.397 13.683) rotate(-20.568)"/><circle class="f" cx="13.215" cy="13.215" r="13.215" transform="translate(66.187 13.682) rotate(-20.568)"/></g><path class="h" d="M0,0H3.848a7.225,7.225,0,0,1,7.225,7.225V36.561a7.225,7.225,0,0,1-7.225,7.225H0a0,0,0,0,1,0,0V0A0,0,0,0,1,0,0Z" transform="translate(166.495 3.557)"/><path class="e" d="M0,0H3.848a7.225,7.225,0,0,1,7.225,7.225V36.561a7.225,7.225,0,0,1-7.225,7.225H0a0,0,0,0,1,0,0V0A0,0,0,0,1,0,0Z" transform="translate(11.074 47.343) rotate(180)"/><rect class="e" width="66" height="9" rx="4.5" transform="translate(52.159 53.282)"/><g transform="translate(-0.5 -0.5)"><line class="j" y1="9" transform="translate(61.659 53.782)"/><line class="j" y1="9" transform="translate(69.659 53.782)"/><line class="j" y1="9" transform="translate(77.659 53.782)"/><line class="j" y1="9" transform="translate(85.659 53.782)"/><line class="j" y1="9" transform="translate(93.659 53.782)"/><line class="j" y1="9" transform="translate(101.659 53.782)"/><line class="j" y1="9" transform="translate(109.659 53.782)"/></g></g></g><g transform="translate(781 557)"><path class="h" d="M585,470.333H166.667s-112-3-137.333,58.334C27.1,534.082,27.417,542,21,543.361c-6.489,1.225-13.333,7.389-14,15.306-.192,4.58-.078,25.083-.078,25.083L0,583.813v11.52H67V583.75H59.667V561.333c-.164-3.679-1.65-16.147-15-18.333C37.246,541.785,40,532.817,40,532.817s19-52.484,124-52.15c48.839.155,421,0,421,0Z" transform="translate(0 -470.309)"/></g><g class="k"><path class="f" d="M.032,21.015c-.019.336-.025.676-.03,1.018,0,.034,0,.066,0,.1H0v.037a20.745,20.745,0,0,0,.131,2.313V24.5c.044.375.1.751.16,1.122,0,.028.012.058.015.086.058.347.128.691.2,1.033.009.038.019.075.028.111.076.333.161.664.252.991.013.04.025.079.037.118.092.326.194.645.3.964l.041.116q.167.48.356.951c.013.032.027.064.041.1.129.321.268.637.416.951A.2.2,0,0,0,2,31.071H2A23.583,23.583,0,0,0,22.6,44.285l-.009-12.925a11.03,11.03,0,0,1-7.929-4.186c-.081-.105-.154-.215-.231-.324s-.155-.225-.226-.34-.133-.214-.2-.323c-.077-.136-.148-.273-.218-.412-.046-.094-.1-.186-.141-.281-.1-.227-.2-.458-.282-.694-.031-.082-.051-.166-.077-.247-.056-.174-.109-.346-.15-.522-.02-.09-.041-.182-.062-.274-.04-.185-.07-.371-.1-.558-.011-.076-.02-.153-.032-.23a7.887,7.887,0,0,1-.046-.805c0-5.01,4.829-9.244,10.555-9.248l4.921,0,4.92,0c5.726,0,10.56,4.238,10.555,9.248a7.887,7.887,0,0,1-.046.805c-.009.077-.021.155-.031.231-.025.186-.058.372-.1.555-.018.092-.037.185-.06.275-.044.176-.095.349-.149.522-.026.082-.049.166-.079.247-.083.236-.175.467-.28.694-.044.095-.095.187-.141.279-.072.14-.141.277-.22.412-.063.109-.129.218-.2.326s-.146.227-.224.339-.153.219-.232.324a11.026,11.026,0,0,1-7.93,4.186l-.007,12.925a23.585,23.585,0,0,0,20.6-13.213h0c0-.012.011-.024.015-.037.146-.313.285-.629.417-.95.014-.032.027-.064.039-.1.128-.313.247-.63.359-.95.014-.04.025-.078.039-.116.109-.319.211-.638.306-.964l.034-.118c.092-.327.176-.658.255-.991.007-.037.019-.073.025-.111.079-.341.147-.686.206-1.033,0-.028.012-.058.017-.086.063-.372.116-.747.157-1.122l0-.012a21.332,21.332,0,0,0,.131-2.312c0-.013,0-.025,0-.037h0c0-.034,0-.066,0-.1,0-.342-.009-.682-.027-1.018-.012-.24-.038-.476-.058-.714-.012-.131-.019-.263-.032-.393C55.446,8.766,45.393-.007,33.283,0l-4.9,0-4.9,0C11.371-.007,1.32,8.766.12,19.908c-.013.13-.02.262-.032.393C.066,20.539.044,20.775.032,21.015Z" transform="translate(795.057 586.036) rotate(-27)"/></g><g transform="translate(-2 84.691)"><rect class="l" width="7.333" height="24" rx="3.667" transform="translate(530 591.333)"/><rect class="l" width="7.333" height="24" rx="3.667" transform="translate(563.667 591.333)"/><path class="h" d="M2,470.17l416,.163s112-3,137.333,58.334c2.237,5.415,1.917,13.333,8.334,14.694,6.674,1,13.333,7.389,14,15.306.192,4.58.078,25.083.078,25.083l6.922.063v11.52h-67V583.75H525V561.333c.164-3.679,1.65-16.147,15-18.333,7.421-1.215,4.667-10.183,4.667-10.183s-19-52.484-124-52.15C371.828,480.822,2,480.5,2,480.5Z"/></g><g class="m"><path class="f" d="M56.734,21.015c.019.336.027.676.03,1.018,0,.034,0,.066,0,.1h0v.037a20.745,20.745,0,0,1-.131,2.313V24.5c-.043.375-.1.751-.16,1.122,0,.028-.011.058-.015.086q-.089.52-.206,1.033c-.007.038-.016.075-.026.111-.076.333-.161.664-.253.991l-.036.118c-.094.326-.194.645-.3.964l-.041.116q-.167.48-.358.951c-.012.032-.026.064-.039.1-.13.321-.269.637-.417.951a.191.191,0,0,1-.017.035h0a23.583,23.583,0,0,1-20.6,13.213l.006-12.925A11.031,11.031,0,0,0,42.1,27.173c.081-.105.155-.215.232-.324s.152-.225.224-.34.134-.214.2-.323c.076-.136.148-.273.218-.412.046-.094.1-.186.141-.281.1-.227.2-.458.282-.694.03-.082.051-.166.077-.247.057-.174.108-.346.15-.522.021-.09.041-.182.063-.274.039-.185.07-.371.095-.558l.032-.23c.025-.266.045-.534.045-.805.006-5.01-4.83-9.244-10.554-9.248l-4.921,0-4.921,0c-5.725,0-10.56,4.238-10.554,9.248a7.9,7.9,0,0,0,.046.805c.007.077.019.155.032.231.024.186.057.372.094.555.02.092.039.185.063.275.044.176.095.349.149.522.026.082.05.166.077.247q.126.353.282.694c.044.095.094.187.141.279.072.14.142.277.22.412.062.109.129.218.2.326s.147.227.224.339.153.219.232.324a11.028,11.028,0,0,0,7.93,4.186L22.6,44.285A23.585,23.585,0,0,1,2,31.071H2l-.015-.037q-.217-.469-.414-.95c-.015-.032-.028-.064-.043-.1-.124-.313-.245-.63-.356-.95-.013-.04-.027-.078-.039-.116-.111-.319-.211-.638-.305-.964C.816,27.919.8,27.88.793,27.84c-.094-.327-.175-.658-.255-.991-.008-.037-.019-.073-.025-.111C.435,26.4.368,26.052.308,25.705.3,25.677.3,25.647.291,25.619.229,25.247.175,24.872.134,24.5v-.012A20.744,20.744,0,0,1,0,22.172v-.037H0c0-.034,0-.066,0-.1q0-.513.027-1.018c.013-.24.038-.476.058-.714.012-.131.017-.263.033-.393C1.32,8.766,11.373-.007,23.483,0l4.9,0,4.9,0c12.11-.007,22.163,8.766,23.363,19.908.014.13.018.262.031.393C56.7,20.539,56.722,20.775,56.734,21.015Z" transform="translate(514.087 553.476) rotate(31)"/></g></g></svg>